<svg width="45" height="57" viewBox="0 0 45 57" fill="none" xmlns="http://www.w3.org/2000/svg">
<path fill-rule="evenodd" clip-rule="evenodd" d="M12.7823 41.5046C12.9494 42.3837 13.137 43.3226 13.3844 44.2411C13.7359 45.659 14.2071 47.0359 14.8973 48.271C14.9192 48.3107 14.9442 48.3564 14.9721 48.4072C15.6143 49.5807 17.7596 53.5003 18.1729 50.0257C18.3104 48.864 17.7139 47.1213 17.1843 45.5736C16.9195 44.7998 16.6713 44.0748 16.54 43.4956L16.54 43.4955C16.209 42.1375 15.878 40.7795 15.4871 39.442C14.9342 40.3669 13.9796 41.0948 12.7823 41.5046ZM17.1915 37.3874C19.635 37.6881 20.6307 37.0798 20.2382 35.5422C20.1854 35.1925 20.1475 34.8376 20.1097 34.4827L20.1097 34.4827L20.1097 34.4827L20.1097 34.4827C20.0718 34.1278 20.034 33.773 19.9811 33.4232C19.8723 32.3236 19.7241 31.3043 19.5554 30.2251C19.5171 29.9618 19.4955 29.6168 19.4717 29.236C19.4033 28.1427 19.3164 26.7535 18.7625 26.1495C18.5496 24.5504 17.4704 24.7191 15.5643 26.5752C15.4699 27.2763 15.3959 28.0373 15.4811 28.6769C16.3416 31.1912 16.9469 34.3279 16.4273 36.9133C16.807 36.8502 17.1284 37.0077 17.1915 37.3874ZM25.9089 29.0538L25.5197 27.9164C25.3939 27.5488 25.2813 27.0835 25.1585 26.576L25.1585 26.5759C24.9213 25.5955 24.6461 24.4578 24.1643 23.5651C24.7235 23.4406 25.2844 23.5161 25.8264 23.7319C26.3085 23.9682 26.7119 24.3651 27.0554 24.7826C27.6397 25.2879 28.1632 25.9172 28.6654 26.521C28.7347 26.6043 28.8035 26.6871 28.8721 26.769C28.9906 26.916 29.1405 27.0784 29.3001 27.2513L29.3001 27.2514C29.7665 27.7567 30.3161 28.3521 30.41 28.9178C30.8751 32.0356 26.9141 29.6461 26.2902 29.1908C26.1894 29.0916 26.0492 29.0727 25.9089 29.0538ZM21.6794 33.1095C21.8795 33.1079 22.1 33.1662 22.2418 33.3852C24.8004 33.0446 25.6935 32.137 24.9214 30.6625L24.6141 29.7645C24.3477 28.9862 24.0814 28.208 23.8954 27.4691C23.8166 27.239 23.7521 26.9549 23.6851 26.6598C23.5603 26.1106 23.4268 25.5232 23.1767 25.1738C23.1278 24.0536 22.6661 23.8772 21.6926 24.7454C20.6323 24.7739 20.2952 25.1568 20.6419 25.9744C20.664 26.2343 20.5852 26.395 20.4261 26.5164C20.4518 26.6713 20.4767 26.8237 20.5011 26.9729L20.5011 26.9733C20.5962 27.5555 20.6833 28.0894 20.7824 28.5345C20.8556 29.0024 20.9823 29.5903 21.1249 30.2512L21.1249 30.2512C21.311 31.1144 21.524 32.1021 21.6794 33.1095ZM11.3381 33.5723C10.2881 27.3777 9.52657 22.2213 12.0403 16.2784C12.6928 14.7654 13.4246 13.285 14.1572 11.8031C15.4759 9.13539 16.797 6.46295 17.6617 3.58742C20.2612 3.36655 22.8843 3.60572 25.35 4.16629C25.4167 4.18161 25.4821 4.19656 25.5463 4.21121C27.5072 4.65918 28.2923 4.83854 28.1751 7.14517C28.0364 8.57222 27.6346 10.0893 27.2487 11.5458C27.2231 11.6427 27.1975 11.7392 27.1721 11.8354C25.7619 10.6461 23.8587 10.3612 21.2893 11.8424C20.5127 12.3088 21.3226 13.5029 22.0993 13.0365C28.5724 9.28302 29.5032 20.601 29.7023 25.4818C28.6308 24.1097 27.3388 22.6793 25.9145 22.2305C25.1725 22.0163 23.9704 21.8258 23.2536 22.2717C22.8912 21.9945 22.4894 21.7976 22.0089 21.7614C20.5075 21.6734 19.6742 22.5605 19.323 23.6838C18.918 23.0868 18.3744 22.6709 17.6733 22.5765C18.9555 20.2651 19.7965 17.8372 19.5519 14.7777C19.4447 13.8781 18.0646 13.9492 18.112 14.8692C18.3975 18.0485 17.2965 20.4985 15.7355 22.9721C15.1984 23.3566 14.803 23.96 14.5289 24.7226C14.4596 24.8132 14.4053 24.8987 14.3509 24.9842C14.2966 25.0696 14.2423 25.1551 14.173 25.2457C14.0942 25.4064 14.0753 25.5466 14.0564 25.6868C13.4923 25.2111 12.5377 25.9391 12.9836 26.6559C13.3287 27.2734 13.7353 28.0705 14.0426 28.9685C14.0529 28.9985 14.0533 29.0485 14.0537 29.0985C14.0541 29.1485 14.0545 29.1985 14.0647 29.2285C14.0663 29.4286 14.1876 29.5877 14.2885 29.6869C14.9851 31.7223 15.4249 34.18 15.1211 36.2234C14.9021 36.3652 14.7446 36.6866 14.847 36.986L14.929 37.2254C14.5794 38.5488 13.8075 39.6155 12.4306 40.0867C12.0129 37.889 11.6755 35.7307 11.3381 33.5723Z" fill="#F4D183"/>
<path fill-rule="evenodd" clip-rule="evenodd" d="M13.2473 13.8812C14.5149 11.5152 15.7844 9.14548 16.545 6.57778C16.8585 5.73487 18.2213 6.00411 17.9882 6.8864C17.1865 9.49771 15.9321 11.8872 14.671 14.2894L14.6709 14.2895L14.6709 14.2896L14.6708 14.2897L14.6708 14.2898L14.6708 14.2898C14.0914 15.3935 13.5106 16.4998 12.9716 17.6316C10.5507 22.6734 10.6252 26.9949 11.4687 32.3907C11.64 33.5098 11.7921 34.68 11.9476 35.8764L11.9476 35.8765L11.9476 35.8765C12.2063 37.8666 12.4744 39.9294 12.8559 41.9505C16.7112 40.8347 16.2517 35.4142 14.9922 31.5229C14.8712 31.4174 14.7837 31.2649 14.7597 31.0638C14.7516 30.9757 14.7443 30.8832 14.7381 30.7867C14.4023 29.8733 14.0311 29.0781 13.6786 28.4912C13.3083 27.7652 14.2161 27.0456 14.7335 27.5097C14.7167 27.3497 14.7485 27.1809 14.8476 27.0212C14.9934 26.818 15.1377 26.6164 15.2801 26.4159C15.533 25.7649 15.8873 25.1988 16.3746 24.8179C17.9746 22.3579 19.0752 19.901 18.7866 16.6447C18.7392 15.7246 20.1792 15.6331 20.2266 16.5532C20.5138 19.5764 19.7068 22.0203 18.3835 24.3522C19.0846 24.4813 19.6063 24.8917 20.0011 25.4528C20.3935 24.3546 21.2134 23.5095 22.644 23.6173C23.123 23.6549 23.5235 23.8309 23.8624 24.1038C24.5666 23.6903 25.7842 23.8379 26.5496 24.0863C28.0263 24.5452 29.3153 26.0314 30.4075 27.4078C30.1994 22.5886 29.2619 11.1736 22.7942 14.8719C21.997 15.2784 21.2076 14.1442 21.9843 13.6778C24.5775 12.1898 26.4858 12.4639 27.8911 13.7115C27.9252 13.6 27.9618 13.482 28 13.3585C28.6209 11.3532 29.6943 7.88605 28.4916 6.70243C26.8782 5.11455 23.0372 5.22528 21.038 5.44135C20.1384 5.54858 20.0469 4.10862 20.9465 4.00139C23.5853 3.70017 27.7887 3.86668 29.8858 5.89091C30.595 6.55303 30.5377 7.0422 30.4376 7.89593C30.4268 7.98871 30.4154 8.08579 30.4044 8.18787C30.0817 10.3715 29.6582 12.4559 29.0944 14.5214C29.0553 14.6692 28.9829 14.7852 28.8908 14.8718C31.2947 18.4121 31.7269 25.277 31.8263 28.3662C31.8336 28.5997 31.7328 28.7765 31.5828 28.8927C32.4955 30.0991 33.1255 31.9196 31.8442 33.1083C30.5436 34.3356 28.6317 33.6581 27.1467 32.8125C27.5556 34.4062 27.6368 36.0495 26.4141 37.1737C25.1603 38.3235 23.6571 37.934 22.5419 36.9766C22.5751 38.4008 22.3337 39.691 21.5384 40.5142C20.4021 41.7273 18.6058 41.9361 17.4526 41.0768C17.4556 41.0867 17.4585 41.0968 17.4612 41.1071C17.7557 42.2101 18.1141 43.3493 18.4776 44.5048L18.4776 44.5048L18.4776 44.5048L18.4776 44.5048L18.4776 44.5048L18.4776 44.5048L18.4776 44.5048C19.2853 47.0722 20.1182 49.7197 20.3314 52.2295C20.4214 53.4694 20.0135 55.0134 18.4932 55.0655C17.0494 55.1151 15.7333 53.0703 14.9971 51.9266C14.9581 51.866 14.9207 51.8079 14.885 51.7527C13.3455 49.4039 12.6835 46.6879 12.0814 43.9514C11.3105 40.1357 10.6594 36.2791 10.0288 32.4823C10.0033 32.3194 9.97771 32.1566 9.95211 31.9938C9.46873 28.9209 8.98762 25.8624 9.57077 22.7412C10.201 19.5677 11.7227 16.7271 13.2473 13.8812ZM25.7604 28.3296C25.5262 27.3678 25.2558 26.2573 24.8058 25.3552C25.3562 25.239 25.9088 25.3152 26.501 25.5074C27.0036 25.8035 27.3865 26.1406 27.73 26.5581C28.0427 26.8857 28.3405 27.2185 28.6383 27.5513C28.9361 27.8841 29.2339 28.2168 29.5467 28.5445C29.6699 28.6973 29.8311 28.8653 30.0029 29.0441C30.4791 29.5402 31.0359 30.1201 31.0846 30.6932C31.5497 33.811 27.5887 31.4215 26.9648 30.9663C26.8182 30.8753 26.6662 30.8404 26.5213 30.8472L26.4917 30.7634L26.4917 30.7634L26.4917 30.7633L26.4917 30.7633L26.4917 30.7633C26.3596 30.3891 26.2347 30.0354 26.1344 29.7123C26.005 29.3342 25.888 28.854 25.7604 28.3296ZM22.3377 34.887C22.5056 34.8939 22.6655 34.9709 22.7761 35.1417C25.3551 34.861 26.2483 33.9534 25.4557 32.419L25.1483 31.5211C24.9623 30.7822 24.696 30.0039 24.4297 29.2257C24.3986 29.0931 24.3683 28.9358 24.3354 28.7652L24.3354 28.765L24.3353 28.7646L24.3353 28.7644C24.2147 28.1387 24.06 27.3362 23.711 26.9303C23.662 25.8102 23.1405 25.6543 22.2268 26.502C21.2264 26.51 20.8295 26.9133 21.1762 27.731C21.2011 27.9403 21.1423 28.1059 21.0359 28.2254C21.1425 28.7493 21.2203 29.2603 21.2888 29.71C21.3193 29.9104 21.348 30.0987 21.3766 30.2706C21.4569 30.7102 21.5789 31.2415 21.7142 31.8309C21.9255 32.751 22.1691 33.8125 22.3377 34.887ZM17.0998 38.6847C17.5488 36.1414 17.0054 33.0631 16.159 30.5891C16.0888 29.8269 16.0903 29.0894 16.2388 28.3507C18.2047 26.4741 19.2839 26.3054 19.4369 27.9249C19.9647 28.4732 20.0551 29.8068 20.1297 30.909C20.1578 31.3236 20.1837 31.7055 20.2298 32.0006C20.3985 33.0797 20.5672 34.1589 20.6556 35.1987C20.7084 35.5484 20.7462 35.9033 20.7841 36.2582L20.7841 36.2582L20.7841 36.2582L20.7841 36.2583L20.7841 36.2583L20.7841 36.2583C20.822 36.6131 20.8598 36.968 20.9126 37.3177C21.3051 38.8553 20.2291 39.4241 17.8659 39.1629C17.7317 38.7707 17.4048 38.6357 17.0998 38.6847ZM16.4075 40.8015C16.5142 40.5974 16.6098 40.3852 16.6948 40.1659C16.7866 40.3484 16.8946 40.5132 17.0159 40.6605C16.8163 40.6193 16.5892 40.6746 16.4075 40.8015ZM16.0726 41.3605C15.4448 42.2782 14.5369 42.9782 13.277 43.3416C13.2317 43.3535 13.1875 43.361 13.1445 43.3645C13.6741 45.7638 14.403 48.0642 15.5118 50.0669C15.8569 50.6845 17.3792 53.3736 17.8786 53.2696C19.4335 53.0399 18.5976 50.7822 18.2421 49.822C18.2047 49.7209 18.1725 49.6341 18.1491 49.5656C17.7741 48.1654 17.4208 46.7759 17.0696 45.3943C16.7446 44.1162 16.4214 42.8449 16.0843 41.5783C16.0699 41.5023 16.0665 41.4295 16.0726 41.3605Z" fill="#D03E00"/>
</svg>
