<?xml version="1.0" encoding="utf-8"?>
<!-- Generator: Adobe Illustrator 25.0.0, SVG Export Plug-In . SVG Version: 6.00 Build 0)  -->
<svg version="1.1" id="Layer_1" xmlns="http://www.w3.org/2000/svg" xmlns:xlink="http://www.w3.org/1999/xlink" x="0px" y="0px"
	 viewBox="0 0 52.4 23.9" style="enable-background:new 0 0 52.4 23.9;" xml:space="preserve">
<style type="text/css">
	.st0{fill-rule:evenodd;clip-rule:evenodd;fill:#F4D183;}
	.st1{fill-rule:evenodd;clip-rule:evenodd;fill:#F3E1B9;}
</style>
<path class="st0" d="M36.5,6.4c1.3,0.4,2.7,0.7,4.1,1.1h0c0.6,0.1,1.3,0.4,2.1,0.6c1.5,0.5,3.3,1.1,4.5,1c3.5-0.4-0.4-2.6-1.6-3.2
	c-0.1,0-0.1-0.1-0.1-0.1c-1.2-0.7-2.6-1.2-4-1.5c-0.9-0.2-1.9-0.4-2.7-0.6C38.1,4.9,37.4,5.8,36.5,6.4z M33.9,7.3
	c-2.6,0.5-5.7-0.1-8.2-0.9c-0.6-0.1-1.4,0-2.1,0.1c-1.9,1.9-2,3-0.4,3.2c0.6,0.6,2,0.6,3.1,0.7c0.4,0,0.7,0,1,0.1
	c1.1,0.2,2.1,0.3,3.2,0.4c0.3,0.1,0.7,0.1,1.1,0.1l0,0l0,0l0,0c0.4,0,0.7,0.1,1.1,0.1c1.5,0.4,2.1-0.6,1.8-3C34,8,33.9,7.7,33.9,7.3
	z M26.2,17.2c0.5,0.6,2.8,4.6-0.3,4.1c-0.6-0.1-1.2-0.6-1.7-1.1h0c-0.2-0.2-0.3-0.3-0.5-0.4c-0.1-0.1-0.2-0.1-0.2-0.2
	c-0.6-0.5-1.2-1-1.7-1.6c-0.4-0.3-0.8-0.7-1.1-1.2c-0.2-0.5-0.3-1.1-0.2-1.7c0.9,0.5,2,0.8,3,1h0c0.5,0.1,1,0.2,1.3,0.4l1.1,0.4
	C26.1,16.9,26.1,17.1,26.2,17.2z M27.3,12L27.3,12c-0.7-0.1-1.2-0.3-1.7-0.3c-0.4-0.1-1-0.2-1.6-0.3h0c-0.1,0-0.3,0-0.5-0.1
	c-0.1,0.2-0.3,0.2-0.5,0.2c-0.8-0.3-1.2,0-1.2,1.1c-0.9,1-0.7,1.4,0.4,1.5c0.3,0.3,0.9,0.4,1.5,0.5c0.3,0.1,0.6,0.1,0.8,0.2
	c0.7,0.2,1.5,0.5,2.3,0.7l0.9,0.3c1.5,0.8,2.4-0.1,2.7-2.7c-0.2-0.1-0.3-0.4-0.3-0.6C29.1,12.4,28.1,12.2,27.3,12z M37.1,3.3
	c-0.5,1.4-1.5,2.1-2.9,2.5L34,5.7c-0.3-0.1-0.6,0.1-0.8,0.3c-2,0.3-4.5-0.1-6.5-0.8C26.6,5.1,26.5,5,26.3,5c0,0-0.1,0-0.1,0
	c0,0-0.1,0-0.1,0c-0.9-0.3-1.7-0.7-2.3-1.1c-0.7-0.4-1.4,0.5-1,1.1c-0.1,0-0.3,0-0.4,0.1c-0.1,0.1-0.2,0.1-0.3,0.2
	c-0.1,0.1-0.2,0.1-0.3,0.2C21,5.7,20.4,6.1,20,6.6c-2.5,1.6-4.9,2.7-8.1,2.4c-0.9,0-1,1.3-0.1,1.4c3.1,0.2,5.5-0.6,7.8-1.9
	c0.1,0.7,0.5,1.2,1.1,1.6c-1.1,0.4-2,1.2-1.9,2.7c0,0.5,0.2,0.9,0.5,1.2c-0.4,0.7-0.3,1.9,0,2.7c0.4,1.4,1.9,2.7,3.3,3.8
	c-4.9-0.2-16.2-1.1-12.4-7.6c0.5-0.8-0.7-1.6-1.2-0.8c-1.5,2.6-1.2,4.5,0,5.9c-0.1,0-0.2,0.1-0.3,0.1c-1.5,0.4-3,0.8-4.4,0.9
	c-2.3,0.1-2.5-0.7-2.9-2.6c0-0.1,0-0.1,0-0.2c-0.6-2.5-0.8-5.1-0.6-7.7c2.9-0.9,5.5-2.2,8.2-3.5c1.5-0.7,3-1.5,4.5-2.1
	c5.9-2.5,11.1-1.8,17.3-0.7C32.8,2.6,34.9,2.9,37.1,3.3z"/>
<path class="st1" d="M19.8,0.5C22.9-0.1,26,0.4,29,0.9c0.2,0,0.3,0.1,0.5,0.1C33.3,1.6,37.2,2.2,41,3c2.7,0.6,5.5,1.3,7.8,2.8
	c0.1,0,0.1,0.1,0.2,0.1c1.1,0.7,3.2,2.1,3.1,3.5c-0.1,1.5-1.6,1.9-2.8,1.8c-2.5-0.2-5.2-1-7.7-1.9l0,0l0,0l0,0l0,0l0,0l0,0
	c-1.2-0.4-2.3-0.7-3.4-1c0,0,0,0,0,0c0.9,1.2,0.7,2.9-0.6,4.1c-0.8,0.8-2.1,1-3.5,1c1,1.1,1.3,2.6,0.2,3.9c-1.1,1.2-2.8,1.1-4.4,0.7
	c0.8,1.5,1.5,3.4,0.3,4.7c-1.2,1.3-3,0.7-4.2-0.3c-0.1,0.1-0.3,0.3-0.5,0.2c-3.1-0.1-10-0.5-13.5-2.9c-0.1,0.1-0.2,0.2-0.4,0.2
	c-2.1,0.6-4.1,1-6.3,1.3c-0.1,0-0.2,0-0.3,0c-0.9,0.1-1.3,0.2-2-0.6c-2-2.1-2.2-6.3-1.9-8.9c0.1-0.9,1.5-0.8,1.4,0.1
	c-0.2,2-0.3,5.8,1.3,7.5c1.2,1.2,4.7,0.1,6.7-0.5c0.1,0,0.2-0.1,0.4-0.1c-1.2-1.4-1.5-3.3,0-5.9c0.5-0.8,1.6,0,1.2,0.8
	c-3.7,6.5,7.7,7.4,12.5,7.6c-1.4-1.1-2.9-2.4-3.3-3.9c-0.2-0.8-0.4-2,0-2.7c-0.3-0.3-0.4-0.7-0.5-1.2c-0.1-1.4,0.7-2.3,1.8-2.6
	c-0.6-0.4-1-0.9-1.1-1.6c-2.3,1.3-4.8,2.1-7.8,1.8c-0.9,0-0.8-1.5,0.1-1.4c3.3,0.3,5.7-0.8,8.2-2.4c0.4-0.5,0.9-0.8,1.6-1.1
	c0.2-0.1,0.4-0.3,0.6-0.4c0.2-0.1,0.3-0.1,0.5-0.1c-0.5-0.5,0.3-1.4,1-1.1c0.6,0.4,1.4,0.7,2.3,1.1c0.1,0,0.2,0,0.3,0
	c0.2,0,0.4,0.1,0.5,0.2c3.9,1.3,9.3,1.7,10.4-2.1c-2-0.4-4.1-0.6-6.1-0.9l0,0h0c-1.2-0.2-2.4-0.3-3.5-0.5C24,1.5,19.7,1.5,14.7,3.9
	c-1.1,0.5-2.2,1.1-3.3,1.7l0,0h0l0,0h0l0,0C8.9,6.8,6.5,8.1,3.9,8.9C3,9.1,2.8,7.8,3.6,7.4c2.6-0.8,4.9-2,7.3-3.3
	C13.8,2.6,16.6,1.1,19.8,0.5z M26.7,17c0.3,0.1,0.7,0.2,1.1,0.4l0,0l0,0h0l0,0l0.1,0c0,0.1,0,0.3,0.1,0.4c0.5,0.6,2.8,4.6-0.3,4.1
	c-0.6,0-1.2-0.6-1.6-1.1c-0.2-0.2-0.3-0.3-0.5-0.5c-0.3-0.3-0.7-0.6-1-0.9s-0.7-0.6-1-0.9c-0.4-0.3-0.8-0.7-1.1-1.2
	c-0.2-0.6-0.3-1.1-0.2-1.7c0.9,0.5,2,0.7,3,1C25.9,16.8,26.4,16.9,26.7,17z M28.9,12.6c-0.6-0.1-1.1-0.3-1.6-0.3
	c-0.2,0-0.4-0.1-0.6-0.1c-0.4-0.1-1-0.1-1.5-0.3c-0.1,0.1-0.3,0.2-0.5,0.1c-0.8-0.3-1.2,0.1-1.2,1.1c-0.8,0.9-0.7,1.4,0.4,1.5
	c0.4,0.3,1.2,0.5,1.8,0.6h0l0,0h0c0.2,0,0.3,0.1,0.5,0.1c0.8,0.3,1.6,0.5,2.3,0.7l0.9,0.3c1.5,0.8,2.4-0.1,2.7-2.7
	c-0.2-0.1-0.2-0.3-0.3-0.4C30.8,13.1,29.8,12.8,28.9,12.6z M36.2,8.8c0.3,2.4-0.3,3.4-1.8,3c-0.3-0.1-0.7-0.1-1.1-0.1l0,0l0,0h0l0,0
	l0,0c-0.4,0-0.7-0.1-1.1-0.1c-1-0.1-2.1-0.3-3.2-0.4c-0.3,0-0.7-0.1-1.1-0.1c-1.1-0.1-2.4-0.2-3-0.7c-1.6-0.2-1.5-1.2,0.4-3.2
	C26.1,7,26.9,7,27.6,7.1c2.5,0.8,5.6,1.4,8.1,0.9C35.7,8.3,35.8,8.6,36.2,8.8z M37.7,7.9c-0.1-0.1-0.3-0.2-0.5-0.3
	c0.2-0.1,0.4-0.2,0.6-0.3C37.7,7.5,37.7,7.7,37.7,7.9z M38.6,7c1.3,0.3,2.5,0.7,3.8,1c1.4,0.4,2.8,0.7,4.2,1.1
	c0.1,0,0.2,0.1,0.3,0.1c1,0.4,3.2,1.2,3.4-0.4c0.1-0.5-2.6-2-3.2-2.4c-2-1.1-4.3-1.8-6.7-2.4c0,0,0,0.1,0,0.1
	c-0.4,1.3-1.1,2.2-2,2.8C38.5,7,38.5,7,38.6,7z"/>
</svg>
