<svg width="155" height="180" viewBox="0 0 155 180" fill="none" xmlns="http://www.w3.org/2000/svg">
<path d="M97.0723 124.763C95.1564 120.52 102.41 112.309 102.41 112.309C102.41 112.309 102.41 112.309 101.315 110.256C100.22 108.203 103.368 106.014 103.368 106.014C102.136 104.782 101.999 103.824 103.505 101.908C105.01 99.9922 103.094 96.9813 103.094 96.9813C97.8935 96.9813 96.1143 95.8865 95.4301 94.5179C94.7458 93.1494 99.5358 80.9693 103.368 76.5899C107.337 72.2105 107.063 68.2417 107.063 68.2417C107.063 68.2417 104.463 65.7784 103.641 63.8624C103.094 62.4938 103.094 61.399 103.368 60.3041C105.968 50.1768 103.368 39.5021 95.567 32.5225C82.1552 20.753 64.5009 13.4996 45.2043 13.4996C28.7817 13.4996 13.5907 18.7001 1.1369 27.4589C17.8332 10.4888 41.2355 0.224712 67.1011 1.04584C114.453 2.4144 152.772 41.4181 153.457 88.77C154.141 138.585 114.042 179.094 64.364 179.094C39.5932 179.094 17.1489 168.967 0.999998 152.545C2.91597 153.913 4.96883 155.145 7.02166 156.376L0.999998 152.545C78.46 180.326 98.9883 129.005 97.0723 124.763Z" fill="#F0E0BD" fill-opacity="0.2"/>
<path d="M0.999998 152.545C17.1489 168.967 39.5932 179.094 64.364 179.094C114.042 179.094 154.141 138.585 153.457 88.77C152.772 41.4181 114.453 2.4144 67.1011 1.04584C41.2355 0.224712 17.8332 10.4888 1.1369 27.4589C13.5907 18.7001 28.7817 13.4996 45.2043 13.4996C64.5009 13.4996 82.1552 20.753 95.567 32.5225C103.368 39.5021 105.968 50.1768 103.368 60.3041C103.094 61.399 103.094 62.4938 103.641 63.8624C104.463 65.7784 107.063 68.2417 107.063 68.2417C107.063 68.2417 107.337 72.2105 103.368 76.5899C99.5358 80.9693 94.7458 93.1494 95.4301 94.5179C96.1143 95.8865 97.8935 96.9813 103.094 96.9813C103.094 96.9813 105.01 99.9922 103.505 101.908C101.999 103.824 102.136 104.782 103.368 106.014C103.368 106.014 100.22 108.203 101.315 110.256C102.41 112.309 102.41 112.309 102.41 112.309C102.41 112.309 95.1564 120.52 97.0723 124.763C98.9883 129.005 78.46 180.326 0.999998 152.545ZM0.999998 152.545C2.91597 153.913 4.96883 155.145 7.02166 156.376L0.999998 152.545Z" stroke="#E0D1B0" stroke-width="1.5" stroke-miterlimit="10" stroke-linecap="round" stroke-linejoin="round"/>
<path d="M112.811 67.4206C112.811 67.4206 113.085 70.9788 115.274 71.6631C117.327 72.3474 126.634 74.9477 126.634 74.9477C126.634 74.9477 118.559 77.9585 115.685 77.9585C112.948 77.9585 113.359 81.243 113.359 81.243" stroke="#E0D1B0" stroke-width="1.5" stroke-miterlimit="10" stroke-linecap="round" stroke-linejoin="round"/>
<path d="M115 106.288C105.968 109.298 104.325 107.382 103.778 106.698L103.367 106.014" stroke="#E0D1B0" stroke-width="1.5" stroke-miterlimit="10" stroke-linecap="round" stroke-linejoin="round"/>
<path d="M113.221 74.9477C113.221 76.5899 114.042 77.9585 115.137 77.9585C116.232 77.9585 117.053 76.5899 117.053 74.9477C117.053 73.3054 116.232 71.9368 115.137 71.9368C114.042 71.9368 113.221 73.1685 113.221 74.9477Z" stroke="#E0D1B0" stroke-width="1.5" stroke-miterlimit="10" stroke-linecap="round" stroke-linejoin="round"/>
<path d="M111.032 92.602C111.032 92.602 113.221 98.0761 107.337 97.9393" stroke="#E0D1B0" stroke-width="1.5" stroke-miterlimit="10" stroke-linecap="round" stroke-linejoin="round"/>
<path d="M130.054 64.9573C129.233 64.5467 128.138 63.5887 123.348 62.0832C114.589 59.3461 111.579 63.1782 111.579 63.1782" stroke="#E0D1B0" stroke-width="1.5" stroke-miterlimit="10" stroke-linecap="round" stroke-linejoin="round"/>
<path d="M103.504 102.045L104.462 103.961C104.462 103.961 105.284 103.277 106.789 103.961C108.294 104.645 109.115 105.193 109.115 105.193" stroke="#E0D1B0" stroke-width="1.5" stroke-miterlimit="10" stroke-linecap="round" stroke-linejoin="round"/>
<path d="M112.811 109.298C112.811 109.298 108.842 112.583 105.968 112.446" stroke="#E0D1B0" stroke-width="1.5" stroke-miterlimit="10" stroke-linecap="round" stroke-linejoin="round"/>
<path d="M117.054 69.1997C117.054 69.1997 120.612 69.6103 123.623 70.7052C126.634 71.8 131.287 73.0317 131.287 73.0317" stroke="#E0D1B0" stroke-width="1.5" stroke-miterlimit="10" stroke-linecap="round" stroke-linejoin="round"/>
<path d="M118.285 102.045C118.285 102.045 120.475 105.056 119.79 107.93" stroke="#E0D1B0" stroke-width="1.5" stroke-miterlimit="10" stroke-linecap="round" stroke-linejoin="round"/>
</svg>
